<svg version="1" xmlns="http://www.w3.org/2000/svg" viewBox="0 0 30 30" height="26" width="26"><path class="st0" d="M25.2 25.2zM25.2 23.6L20 18.4c1.1-1.5 1.8-3.3 1.8-5.2 0-4.8-3.9-8.6-8.6-8.6-4.8 0-8.6 3.9-8.6 8.6 0 4.8 3.9 8.6 8.6 8.6 2 0 3.8-.7 5.2-1.8l5.2 5.2c.2.2.5.3.8.3.3 0 .6-.1.8-.3.2-.2.3-.5.3-.8 0-.3-.1-.6-.3-.8zm-12.1-4.1c-1.8 0-3.2-.7-4.4-1.9C7.6 16.5 7 14.9 7 13.1c0-1.8.6-3.3 1.8-4.5 1.2-1.2 2.7-1.9 4.4-1.9 1.8 0 3.3.7 4.5 1.9 1.2 1.2 1.9 2.7 1.9 4.5 0 1.8-.7 3.3-1.9 4.5a6.42 6.42 0 0 1-4.6 1.9zM25.2 23.6z" fill="#FF4269"/></svg>